<?xml version="1.0" encoding="utf-8"?>
<!-- Generator: Adobe Illustrator 16.0.0, SVG Export Plug-In . SVG Version: 6.00 Build 0)  -->
<!DOCTYPE svg PUBLIC "-//W3C//DTD SVG 1.1//EN" "http://www.w3.org/Graphics/SVG/1.1/DTD/svg11.dtd">
<svg version="1.1" id="Layer_1" xmlns="http://www.w3.org/2000/svg" xmlns:xlink="http://www.w3.org/1999/xlink" x="0px" y="0px"
	 width="360px" height="360px" viewBox="0 0 360 360" enable-background="new 0 0 360 360" xml:space="preserve">
<path fill="#7BC24F" stroke="#39B54A" stroke-miterlimit="10" d="M93.13,325.555c0,0-107.425-141.764,5.215-248.39
	c112.64-106.625,189.818,1.212,200.247,16.963c10.429,15.752,44.848,140.552-29.202,229.001L93.13,325.555z"/>
<ellipse fill="#7BC24F" cx="103.038" cy="54.992" rx="43.283" ry="50.283"/>
<ellipse fill="#7BC24F" cx="261.358" cy="56.204" rx="43.283" ry="50.284"/>
<ellipse fill="#FFFFFF" cx="105.645" cy="51.72" rx="30.245" ry="35.138"/>
<ellipse fill="#FFFFFF" cx="256.457" cy="58.505" rx="30.247" ry="35.138"/>
<ellipse cx="104.081" cy="52.327" rx="16.166" ry="18.78"/>
<ellipse cx="255.935" cy="56.93" rx="16.167" ry="18.781"/>
<ellipse fill="#FFFFFF" cx="99.387" cy="45.663" rx="4.172" ry="4.846"/>
<ellipse fill="#72A44F" cx="90.209" cy="253.582" rx="30.246" ry="35.137"/>
<ellipse fill="#FFFFFF" cx="262.61" cy="49.903" rx="4.694" ry="5.453"/>
<path fill="#72A44F" d="M254.093,278.603c3.652,17.222,11.827,29.685,18.26,27.843c6.431-1.84,8.684-17.291,5.031-34.51
	c-3.652-17.217-11.826-29.683-18.258-27.843C252.694,245.935,250.441,261.386,254.093,278.603z"/>
<path fill="#A3CE50" d="M81.568,224.707c17.595,51.864,20.926,98.912,7.438,105.087c-13.486,6.177-38.683-30.858-56.279-82.721
	c-17.595-51.861-20.925-98.909-7.438-105.086C38.775,135.812,63.972,172.847,81.568,224.707z"/>
<path fill="#A3CE50" d="M58.712,306.167c0,0-57.363,10.904-38.59,13.327c18.773,2.424,18.773,2.424,18.773,2.424
	s-47.976,10.907-20.859,10.907c27.117,0,27.117,0,27.117,0s-27.117,29.079-10.43,19.383c16.687-9.691,37.546-9.691,45.89-26.653
	C88.958,308.59,58.712,306.167,58.712,306.167z"/>
<path fill="#A3CE50" d="M281.87,224.707c-16.776,51.864-19.953,98.912-7.093,105.087c12.857,6.177,36.882-30.858,53.659-82.721
	c16.777-51.861,19.953-98.909,7.095-105.086C322.671,135.812,298.646,172.847,281.87,224.707z"/>
<path fill="#A3CE50" d="M303.661,306.167c0,0,54.694,10.904,36.794,13.327c-17.899,2.424-17.899,2.424-17.899,2.424
	s45.742,10.907,19.89,10.907c-25.855,0-25.855,0-25.855,0s25.855,29.079,9.943,19.383c-15.911-9.691-35.799-9.691-43.755-26.653
	C274.823,308.59,303.661,306.167,303.661,306.167z"/>
<path fill="#72A44F" d="M173.167,78.217c-2.57,3.608-5.509,5.713-6.561,4.701c-1.052-1.011,0.179-4.758,2.75-8.366
	c2.571-3.607,5.508-5.711,6.562-4.7C176.969,70.864,175.737,74.608,173.167,78.217z"/>
<path fill="#72A44F" d="M201.454,73.112c2.862,4.194,4.397,8.319,3.427,9.212c-0.969,0.894-4.076-1.783-6.939-5.977
	s-4.398-8.319-3.43-9.212C195.482,66.241,198.591,68.917,201.454,73.112z"/>
<path fill="#72A44F" d="M108.995,131.041c5.969,14.113,4.312,29.264-3.701,33.837c-8.013,4.575-19.348-3.16-25.317-17.273
	c-5.97-14.114-4.312-29.263,3.7-33.838C91.69,109.194,103.024,116.926,108.995,131.041z"/>
<ellipse fill="#72A44F" cx="91.565" cy="194.09" rx="8.865" ry="10.3"/>
<ellipse fill="#72A44F" cx="132.24" cy="209.842" rx="7.822" ry="9.086"/>
<ellipse fill="#72A44F" cx="237.579" cy="125.631" rx="16.165" ry="19.386"/>
<path fill="#72A44F" d="M297.871,128.836c3.639,9.838,2.939,19.634-1.559,21.878s-11.095-3.911-14.73-13.748
	c-3.638-9.838-2.938-19.634,1.56-21.878C287.64,112.844,294.235,118.999,297.871,128.836z"/>
<ellipse fill="#72A44F" cx="285.555" cy="166.827" rx="4.693" ry="6.059"/>
<ellipse fill="#72A44F" cx="269.39" cy="203.782" rx="6.258" ry="7.876"/>
<path fill="#72A44F" d="M263.132,227.409c0,2.008-1.867,3.637-4.172,3.637s-4.172-1.629-4.172-3.637
	c0-2.005,1.867-3.634,4.172-3.634S263.132,225.404,263.132,227.409z"/>
<path fill="none" stroke="#3C2415" stroke-width="3" stroke-miterlimit="10" d="M116.075,128.719c0,0,55.276,49.868,114.725,5.646"
	/>
<path fill="#F1E572" d="M138.333,325c0,0-14.667-94.666,47.333-100.666s42,100,42,100L138.333,325z"/>
</svg>
